<?xml version="1.0" encoding="UTF-8"?>
<svg id="Ebene_1" data-name="Ebene 1" xmlns="http://www.w3.org/2000/svg" viewBox="0 0 675.74 170.56">
  <defs>
    <style>
      .cls-1 {
        fill: gray;
      }
    </style>
  </defs>
  <g>
    <path d="M108.74,149.05h5.79c1.62,0,3.16.16,4.63.47,1.47.31,2.77.87,3.89,1.67s2.01,1.88,2.68,3.24c.67,1.36,1,3.1,1,5.2s-.33,3.83-1,5.19c-.67,1.36-1.56,2.44-2.68,3.24-1.12.8-2.42,1.35-3.89,1.67-1.47.31-3.02.47-4.63.47h-5.79v-21.14ZM112.98,166.86h2.36c.89,0,1.75-.16,2.59-.48.84-.32,1.58-.79,2.23-1.41.65-.62,1.17-1.37,1.56-2.27s.59-1.92.59-3.07-.2-2.18-.59-3.07c-.39-.9-.91-1.66-1.56-2.27-.65-.62-1.39-1.09-2.23-1.41-.84-.32-1.7-.48-2.59-.48h-2.36v14.48Z"/>
    <path d="M129.25,162.5c0-1.29.21-2.45.62-3.47.41-1.02.99-1.88,1.73-2.59.74-.71,1.6-1.25,2.59-1.64.99-.38,2.06-.58,3.21-.58s2.23.19,3.23.58c1,.38,1.87.93,2.6,1.64.74.71,1.31,1.57,1.73,2.59.41,1.02.62,2.18.62,3.47,0,1.13-.18,2.19-.55,3.17-.36.98-.89,1.83-1.59,2.56-.7.73-1.56,1.3-2.57,1.71-1.02.41-2.18.62-3.47.62s-2.44-.21-3.45-.62c-1.01-.41-1.86-.98-2.56-1.71-.7-.73-1.23-1.58-1.59-2.56-.36-.98-.54-2.03-.54-3.17ZM133.49,162.02c0,.65.06,1.29.18,1.92s.33,1.21.62,1.73c.29.51.69.93,1.2,1.26.5.32,1.14.48,1.91.48s1.43-.16,1.94-.47.9-.73,1.2-1.24c.29-.51.5-1.09.62-1.74.12-.65.18-1.29.18-1.94,0-.61-.08-1.19-.24-1.74s-.4-1.04-.73-1.47c-.32-.42-.73-.77-1.23-1.03s-1.07-.39-1.74-.39-1.24.13-1.73.39-.89.61-1.21,1.04c-.32.44-.57.93-.73,1.48-.16.56-.24,1.13-.24,1.71Z"/>
    <path d="M148.84,147.48h4.06v13.36h.06l4.85-6.24h4.79l-5.82,6.97,6.54,8.63h-5.15l-5.21-7.57h-.06v7.57h-4.06v-22.72Z"/>
    <path d="M179.92,170.2h-3.85v-2.12h-.06c-.63.77-1.37,1.37-2.23,1.82s-1.82.67-2.89.67c-.93,0-1.73-.15-2.39-.45-.67-.3-1.22-.73-1.65-1.27-.43-.55-.75-1.19-.95-1.94-.2-.75-.3-1.56-.3-2.45v-9.84h4.06v8.33c0,.48.02.99.05,1.51.03.52.13,1,.29,1.44s.42.8.79,1.09.87.44,1.51.44c.73,0,1.32-.18,1.79-.53.46-.35.83-.79,1.09-1.32.26-.52.44-1.08.55-1.68.1-.6.15-1.15.15-1.65v-7.63h4.06v15.6Z"/>
    <path d="M184.04,154.6h3.79v2.18h.06c.65-.97,1.39-1.64,2.23-2,.84-.36,1.64-.55,2.41-.55,1.09,0,2.02.22,2.79.65.77.43,1.37,1.14,1.82,2.1.46-.93,1.16-1.62,2.07-2.08.92-.45,1.85-.68,2.8-.68s1.77.16,2.39.47c.63.31,1.13.74,1.51,1.29.38.55.65,1.19.8,1.94.15.75.23,1.56.23,2.42v9.84h-4.06v-9.3c0-.36-.01-.75-.03-1.17-.02-.41-.11-.79-.26-1.14-.15-.34-.38-.63-.7-.86-.31-.23-.76-.35-1.35-.35-.67,0-1.2.18-1.61.53-.4.35-.71.8-.92,1.33-.21.54-.35,1.1-.41,1.71s-.09,1.16-.09,1.67v7.57h-4.06v-9.3c0-.36-.01-.75-.03-1.17-.02-.41-.11-.79-.26-1.14-.15-.34-.38-.63-.7-.86-.31-.23-.76-.35-1.35-.35-.67,0-1.2.18-1.61.53-.4.35-.71.8-.92,1.33-.21.54-.35,1.1-.41,1.71s-.09,1.16-.09,1.67v7.57h-4.06v-15.6Z"/>
    <path d="M223.54,169.32c-.75.4-1.55.71-2.42.92s-1.85.32-2.94.32c-2.58,0-4.59-.7-6.01-2.1-1.42-1.4-2.14-3.4-2.14-5.98,0-1.13.15-2.2.45-3.2.3-1,.75-1.87,1.35-2.62.6-.75,1.35-1.34,2.26-1.77s1.97-.65,3.18-.65c1.45,0,2.66.24,3.6.71.95.48,1.71,1.13,2.27,1.95.56.83.96,1.82,1.2,2.98.23,1.16.35,2.42.35,3.77h-10.78c.1,1.27.55,2.25,1.35,2.92s1.83,1.01,3.11,1.01c.99,0,1.91-.16,2.76-.47.85-.31,1.66-.68,2.42-1.1v3.3ZM220.81,160.87c-.04-.48-.13-.95-.26-1.39-.13-.44-.33-.83-.59-1.17-.26-.33-.6-.6-1-.8-.4-.2-.89-.3-1.45-.3-1.15,0-2.01.35-2.59,1.04s-.91,1.57-1.01,2.62h6.91Z"/>
    <path d="M227.87,154.6h3.85v2.12h.06c.65-.91,1.39-1.55,2.24-1.92.85-.37,1.81-.56,2.88-.56.93,0,1.73.16,2.39.47.67.31,1.22.74,1.65,1.29.43.55.75,1.19.95,1.94.2.75.3,1.56.3,2.42v9.84h-4.06v-8.33c0-.48-.02-.99-.05-1.52-.03-.52-.13-1-.3-1.44-.17-.43-.43-.8-.79-1.09-.35-.29-.85-.44-1.5-.44-.73,0-1.32.18-1.79.53-.46.35-.83.79-1.09,1.32s-.44,1.09-.54,1.68c-.1.6-.15,1.15-.15,1.65v7.63h-4.06v-15.6Z"/>
    <path d="M247.71,157.56h-3v-2.97h3v-3.12l4.06-1.3v4.42h3.6v2.97h-3.6v7.27c0,.34.02.67.08.97.05.3.15.58.29.82.14.24.34.44.59.58s.57.21.95.21c.36,0,.71-.04,1.03-.11.32-.07.6-.18.82-.32l.12,3.21c-.42.12-.88.21-1.36.27-.48.06-1.03.09-1.64.09-1.6,0-2.82-.45-3.67-1.36-.85-.91-1.27-2.14-1.27-3.7v-7.94Z"/>
    <path d="M270.67,169.32c-.75.4-1.55.71-2.42.92s-1.85.32-2.94.32c-2.58,0-4.59-.7-6.01-2.1-1.42-1.4-2.14-3.4-2.14-5.98,0-1.13.15-2.2.45-3.2.3-1,.75-1.87,1.35-2.62.6-.75,1.35-1.34,2.26-1.77s1.97-.65,3.18-.65c1.45,0,2.66.24,3.6.71.95.48,1.71,1.13,2.27,1.95.56.83.96,1.82,1.2,2.98.23,1.16.35,2.42.35,3.77h-10.78c.1,1.27.55,2.25,1.35,2.92s1.83,1.01,3.11,1.01c.99,0,1.91-.16,2.76-.47.85-.31,1.66-.68,2.42-1.1v3.3ZM267.94,160.87c-.04-.48-.13-.95-.26-1.39-.13-.44-.33-.83-.59-1.17-.26-.33-.6-.6-1-.8-.4-.2-.89-.3-1.45-.3-1.15,0-2.01.35-2.59,1.04-.58.7-.91,1.57-1.01,2.62h6.91Z"/>
    <path d="M275,154.6h3.85v2.12h.06c.65-.91,1.39-1.55,2.24-1.92.85-.37,1.81-.56,2.88-.56.93,0,1.73.16,2.39.47.67.31,1.22.74,1.65,1.29.43.55.75,1.19.95,1.94.2.75.3,1.56.3,2.42v9.84h-4.06v-8.33c0-.48-.02-.99-.05-1.52-.03-.52-.13-1-.3-1.44-.17-.43-.43-.8-.79-1.09-.35-.29-.85-.44-1.5-.44-.73,0-1.32.18-1.79.53-.46.35-.83.79-1.09,1.32s-.44,1.09-.54,1.68c-.1.6-.15,1.15-.15,1.65v7.63h-4.06v-15.6Z"/>
    <path d="M302.78,157.87c-.63-.22-1.2-.39-1.73-.5-.53-.11-1.16-.17-1.91-.17-.28,0-.57.03-.85.08-.28.05-.54.15-.76.29-.22.14-.41.32-.56.54-.15.22-.23.5-.23.82,0,.4.18.72.53.95.35.23.79.44,1.3.61.51.17,1.08.35,1.7.53.62.18,1.18.45,1.7.8.51.35.95.82,1.3,1.39.35.58.53,1.33.53,2.26s-.19,1.69-.56,2.33c-.37.65-.86,1.17-1.47,1.58-.61.4-1.3.7-2.09.89-.79.19-1.6.29-2.42.29-.77,0-1.54-.06-2.32-.18-.78-.12-1.54-.28-2.29-.48l.24-3.33c.65.32,1.3.58,1.95.76.66.18,1.34.27,2.04.27.26,0,.55-.03.85-.09.3-.06.59-.16.86-.3.27-.14.5-.33.68-.58.18-.24.27-.55.27-.94,0-.5-.18-.89-.53-1.15-.35-.26-.79-.48-1.3-.67-.51-.18-1.08-.35-1.7-.52-.62-.16-1.18-.4-1.7-.73-.52-.32-.95-.76-1.3-1.3-.35-.54-.53-1.29-.53-2.24,0-.85.17-1.57.51-2.18.34-.61.8-1.11,1.36-1.5.56-.39,1.22-.69,1.95-.88.74-.19,1.5-.29,2.29-.29.97,0,1.79.06,2.45.18.67.12,1.32.25,1.97.39l-.27,3.06Z"/>
    <path d="M319.47,169.32c-.75.4-1.55.71-2.42.92s-1.85.32-2.94.32c-2.58,0-4.59-.7-6.01-2.1-1.42-1.4-2.14-3.4-2.14-5.98,0-1.13.15-2.2.45-3.2.3-1,.75-1.87,1.35-2.62.6-.75,1.35-1.34,2.26-1.77s1.97-.65,3.18-.65c1.45,0,2.66.24,3.6.71.95.48,1.71,1.13,2.27,1.95.56.83.96,1.82,1.2,2.98.23,1.16.35,2.42.35,3.77h-10.78c.1,1.27.55,2.25,1.35,2.92s1.83,1.01,3.11,1.01c.99,0,1.91-.16,2.76-.47.85-.31,1.66-.68,2.42-1.1v3.3ZM316.74,160.87c-.04-.48-.13-.95-.26-1.39-.13-.44-.33-.83-.59-1.17-.26-.33-.6-.6-1-.8-.4-.2-.89-.3-1.45-.3-1.15,0-2.01.35-2.59,1.04s-.91,1.57-1.01,2.62h6.91Z"/>
    <path d="M323.89,154.6h3.6v3.54h.06c.04-.36.17-.77.39-1.23.22-.46.52-.88.89-1.27.37-.39.81-.73,1.32-1,.5-.27,1.06-.41,1.67-.41.2,0,.4,0,.61.02.2.01.41.05.64.11v4.09c-.18-.1-.44-.18-.77-.24-.33-.06-.68-.09-1.04-.09-.83,0-1.46.23-1.91.68-.44.45-.77,1.01-.98,1.67-.21.66-.33,1.35-.36,2.07-.03.73-.05,1.37-.05,1.94v5.72h-4.06v-15.6Z"/>
    <path d="M333.85,154.6h4.36l3.88,11.36h.06l3.76-11.36h4.06l-5.75,15.6h-4.57l-5.79-15.6Z"/>
    <path d="M364.93,169.32c-.75.4-1.56.71-2.42.92s-1.85.32-2.94.32c-2.59,0-4.59-.7-6.01-2.1-1.42-1.4-2.14-3.4-2.14-5.98,0-1.13.15-2.2.45-3.2.3-1,.75-1.87,1.35-2.62.6-.75,1.35-1.34,2.26-1.77s1.97-.65,3.18-.65c1.45,0,2.65.24,3.6.71s1.71,1.13,2.27,1.95c.56.83.96,1.82,1.2,2.98.23,1.16.35,2.42.35,3.77h-10.78c.1,1.27.55,2.25,1.35,2.92s1.83,1.01,3.11,1.01c.99,0,1.91-.16,2.76-.47.85-.31,1.66-.68,2.42-1.1v3.3ZM362.21,160.87c-.04-.48-.13-.95-.26-1.39-.13-.44-.33-.83-.59-1.17-.26-.33-.6-.6-1-.8-.4-.2-.89-.3-1.45-.3-1.15,0-2.02.35-2.59,1.04s-.91,1.57-1.01,2.62h6.91Z"/>
    <path d="M369.36,154.6h3.6v3.54h.06c.04-.36.17-.77.39-1.23.22-.46.52-.88.89-1.27.37-.39.81-.73,1.32-1,.5-.27,1.06-.41,1.67-.41.2,0,.4,0,.61.02.2.01.41.05.64.11v4.09c-.18-.1-.44-.18-.77-.24-.33-.06-.68-.09-1.05-.09-.83,0-1.46.23-1.91.68-.44.45-.77,1.01-.98,1.67-.21.66-.33,1.35-.36,2.07s-.05,1.37-.05,1.94v5.72h-4.06v-15.6Z"/>
    <path d="M399.86,168.44h-.06c-.61.77-1.31,1.31-2.12,1.64-.81.32-1.7.48-2.67.48-1.19,0-2.21-.23-3.04-.68s-1.51-1.06-2.03-1.82c-.51-.76-.89-1.63-1.12-2.62-.23-.99-.35-2.02-.35-3.09s.12-2.1.35-3.07c.23-.98.61-1.84,1.12-2.59.52-.75,1.19-1.34,2.03-1.79.84-.44,1.85-.67,3.04-.67,1.03,0,1.91.18,2.65.53.74.35,1.41.9,2.01,1.65h.06v-8.94h4.06v22.72h-3.94v-1.76ZM392.71,162.35c0,.54.06,1.11.17,1.7.11.59.29,1.13.54,1.64.25.51.6.92,1.04,1.24.44.32,1,.48,1.67.48s1.23-.16,1.7-.48c.46-.32.83-.73,1.1-1.23.27-.49.47-1.04.59-1.64.12-.6.18-1.17.18-1.71s-.07-1.11-.2-1.7c-.13-.59-.34-1.12-.64-1.61-.29-.48-.67-.88-1.14-1.2s-1.02-.47-1.67-.47-1.21.16-1.64.48c-.42.32-.77.73-1.03,1.21s-.44,1.02-.54,1.61c-.1.59-.15,1.14-.15,1.67Z"/>
    <path d="M420.48,169.32c-.75.4-1.56.71-2.42.92s-1.85.32-2.94.32c-2.58,0-4.59-.7-6.01-2.1-1.42-1.4-2.14-3.4-2.14-5.98,0-1.13.15-2.2.45-3.2.3-1,.75-1.87,1.35-2.62.6-.75,1.35-1.34,2.26-1.77.91-.43,1.97-.65,3.18-.65,1.45,0,2.65.24,3.6.71.95.48,1.71,1.13,2.27,1.95.56.83.96,1.82,1.2,2.98.23,1.16.35,2.42.35,3.77h-10.78c.1,1.27.55,2.25,1.35,2.92.8.68,1.83,1.01,3.1,1.01.99,0,1.91-.16,2.76-.47.85-.31,1.66-.68,2.42-1.1v3.3ZM417.76,160.87c-.04-.48-.13-.95-.26-1.39-.13-.44-.33-.83-.59-1.17s-.6-.6-1-.8c-.4-.2-.89-.3-1.45-.3-1.15,0-2.01.35-2.59,1.04-.58.7-.91,1.57-1.01,2.62h6.91Z"/>
    <path d="M424.91,154.6h3.6v3.54h.06c.04-.36.17-.77.39-1.23.22-.46.52-.88.89-1.27.37-.39.81-.73,1.32-1,.5-.27,1.06-.41,1.67-.41.2,0,.4,0,.61.02.2.01.41.05.64.11v4.09c-.18-.1-.44-.18-.77-.24-.33-.06-.68-.09-1.05-.09-.83,0-1.46.23-1.91.68-.44.45-.77,1.01-.98,1.67s-.33,1.35-.36,2.07-.05,1.37-.05,1.94v5.72h-4.06v-15.6Z"/>
    <path d="M443.6,166.5c.28.1.59.19.91.26.32.07.7.11,1.12.11.69,0,1.22-.12,1.59-.36.37-.24.65-.55.82-.92.17-.37.27-.78.3-1.21.03-.43.05-.84.05-1.23v-14.09h4.24v16.11c0,.56-.1,1.16-.29,1.79-.19.63-.52,1.21-.97,1.74-.45.54-1.05.98-1.79,1.33-.74.35-1.65.53-2.74.53-.59,0-1.13-.03-1.62-.08-.5-.05-1.04-.16-1.62-.32v-3.67Z"/>
    <path d="M457.5,155.41c.79-.36,1.67-.65,2.65-.86.98-.21,1.9-.32,2.77-.32,2.38,0,4.1.52,5.15,1.56,1.05,1.04,1.58,2.71,1.58,5.01v2c0,.79,0,1.49.02,2.1,0,.62.02,1.22.04,1.8s.05,1.16.08,1.73c.03.57.06,1.15.11,1.76h-3.57c-.08-.4-.13-.83-.14-1.29s-.03-.8-.05-1.04h-.06c-.24.42-.54.81-.89,1.15-.35.34-.74.63-1.17.85-.42.22-.87.39-1.35.52-.48.12-.94.18-1.41.18-.69,0-1.36-.1-2.01-.3-.66-.2-1.24-.5-1.74-.89-.5-.39-.91-.88-1.23-1.45-.31-.58-.47-1.24-.47-1.98,0-1.17.25-2.11.76-2.82.5-.71,1.14-1.25,1.91-1.64s1.62-.63,2.56-.74c.94-.11,1.83-.17,2.68-.17h2.24c0-1.27-.28-2.15-.85-2.64-.57-.48-1.45-.73-2.67-.73-.87,0-1.72.15-2.54.45-.83.3-1.58.72-2.27,1.24l-.12-3.48ZM459.68,165.68c0,.67.25,1.15.74,1.45.49.3,1.1.45,1.83.45.63,0,1.18-.13,1.65-.38.47-.25.87-.59,1.2-1.01.34-.44.57-.94.68-1.48.11-.55.17-1.12.17-1.73h-1.76c-.46,0-.96.03-1.48.09-.52.06-1.01.18-1.45.36-.44.18-.82.45-1.12.8-.3.35-.45.83-.45,1.44Z"/>
    <path d="M484.03,168.44h-.06c-.61.77-1.31,1.31-2.12,1.64-.81.32-1.7.48-2.67.48-1.19,0-2.21-.23-3.04-.68s-1.51-1.06-2.03-1.82c-.51-.76-.89-1.63-1.12-2.62-.23-.99-.35-2.02-.35-3.09s.12-2.1.35-3.07c.23-.98.61-1.84,1.12-2.59.52-.75,1.19-1.34,2.03-1.79.84-.44,1.85-.67,3.04-.67,1.03,0,1.91.18,2.65.53.74.35,1.41.9,2.01,1.65h.06v-8.94h4.06v22.72h-3.94v-1.76ZM476.89,162.35c0,.54.06,1.11.17,1.7.11.59.29,1.13.54,1.64.25.51.6.92,1.04,1.24.44.32,1,.48,1.67.48s1.23-.16,1.7-.48c.46-.32.83-.73,1.1-1.23.27-.49.47-1.04.59-1.64.12-.6.18-1.17.18-1.71s-.07-1.11-.2-1.7c-.13-.59-.34-1.12-.64-1.61-.29-.48-.67-.88-1.14-1.2s-1.02-.47-1.67-.47-1.21.16-1.64.48c-.42.32-.77.73-1.03,1.21s-.44,1.02-.54,1.61c-.1.59-.15,1.14-.15,1.67Z"/>
    <path d="M504.66,169.32c-.75.4-1.56.71-2.42.92s-1.85.32-2.94.32c-2.58,0-4.59-.7-6.01-2.1-1.42-1.4-2.14-3.4-2.14-5.98,0-1.13.15-2.2.45-3.2.3-1,.75-1.87,1.35-2.62.6-.75,1.35-1.34,2.26-1.77.91-.43,1.97-.65,3.18-.65,1.45,0,2.65.24,3.6.71.95.48,1.71,1.13,2.27,1.95.56.83.96,1.82,1.2,2.98.23,1.16.35,2.42.35,3.77h-10.78c.1,1.27.55,2.25,1.35,2.92.8.68,1.83,1.01,3.1,1.01.99,0,1.91-.16,2.76-.47.85-.31,1.66-.68,2.42-1.1v3.3ZM501.94,160.87c-.04-.48-.13-.95-.26-1.39-.13-.44-.33-.83-.59-1.17s-.6-.6-1-.8c-.4-.2-.89-.3-1.45-.3-1.15,0-2.01.35-2.59,1.04-.58.7-.91,1.57-1.01,2.62h6.91Z"/>
    <path d="M517.78,149.05h4.24v8.54h8.48v-8.54h4.24v21.14h-4.24v-9.27h-8.48v9.27h-4.24v-21.14Z"/>
    <path d="M538.28,162.5c0-1.29.21-2.45.62-3.47.41-1.02.99-1.88,1.73-2.59.74-.71,1.6-1.25,2.59-1.64.99-.38,2.06-.58,3.21-.58s2.23.19,3.23.58c1,.38,1.87.93,2.6,1.64.74.71,1.31,1.57,1.73,2.59.41,1.02.62,2.18.62,3.47,0,1.13-.18,2.19-.55,3.17-.36.98-.89,1.83-1.59,2.56s-1.56,1.3-2.57,1.71c-1.02.41-2.18.62-3.47.62s-2.44-.21-3.45-.62c-1.01-.41-1.86-.98-2.56-1.71s-1.23-1.58-1.59-2.56c-.36-.98-.54-2.03-.54-3.17ZM542.52,162.02c0,.65.06,1.29.18,1.92s.33,1.21.62,1.73c.29.51.69.93,1.2,1.26.5.32,1.14.48,1.91.48s1.43-.16,1.94-.47c.5-.31.9-.73,1.2-1.24.29-.51.5-1.09.62-1.74.12-.65.18-1.29.18-1.94,0-.61-.08-1.19-.24-1.74-.16-.56-.4-1.04-.73-1.47-.32-.42-.73-.77-1.23-1.03s-1.08-.39-1.74-.39-1.24.13-1.73.39c-.48.26-.89.61-1.21,1.04-.32.44-.57.93-.73,1.48-.16.56-.24,1.13-.24,1.71Z"/>
    <path d="M567.91,157.96c-.36-.16-.76-.3-1.18-.41-.42-.11-.95-.17-1.58-.17-1.27,0-2.28.45-3.01,1.36-.74.91-1.11,2.1-1.11,3.57,0,.73.09,1.4.26,2.01.17.62.43,1.15.77,1.6s.78.81,1.32,1.08,1.16.39,1.86.39c.59,0,1.17-.08,1.74-.24s1.03-.32,1.38-.48l.18,3.36c-.59.18-1.2.31-1.83.39s-1.38.12-2.23.12c-1.27,0-2.39-.21-3.36-.62-.97-.41-1.77-.98-2.41-1.71-.64-.73-1.12-1.6-1.44-2.6-.32-1.01-.48-2.11-.48-3.3s.17-2.19.5-3.17c.33-.98.82-1.83,1.45-2.56.64-.73,1.42-1.3,2.36-1.73.94-.42,2.01-.64,3.23-.64.83,0,1.55.05,2.17.14.62.09,1.21.22,1.77.38l-.36,3.21Z"/>
    <path d="M571.24,147.48h4.06v9.24h.06c.52-.77,1.21-1.37,2.04-1.82.84-.44,1.79-.67,2.86-.67.93,0,1.73.16,2.39.47.67.31,1.22.74,1.65,1.29.43.55.75,1.19.95,1.94.2.75.3,1.56.3,2.42v9.84h-4.06v-8.33c0-.48-.02-.99-.05-1.52-.03-.52-.13-1-.3-1.44s-.43-.8-.79-1.09-.85-.44-1.5-.44c-.73,0-1.32.18-1.79.53-.46.35-.83.79-1.09,1.32s-.44,1.09-.54,1.68c-.1.6-.15,1.15-.15,1.65v7.63h-4.06v-22.72Z"/>
    <path d="M599.01,157.87c-.63-.22-1.2-.39-1.73-.5-.53-.11-1.16-.17-1.91-.17-.28,0-.57.03-.85.08-.28.05-.54.15-.76.29s-.41.32-.56.54c-.15.22-.23.5-.23.82,0,.4.18.72.53.95.35.23.79.44,1.3.61.52.17,1.08.35,1.7.53.62.18,1.18.45,1.7.8.51.35.95.82,1.3,1.39.35.58.53,1.33.53,2.26s-.19,1.69-.56,2.33c-.37.65-.86,1.17-1.47,1.58-.6.4-1.3.7-2.09.89-.79.19-1.6.29-2.42.29-.77,0-1.54-.06-2.32-.18s-1.54-.28-2.29-.48l.24-3.33c.65.32,1.3.58,1.95.76.66.18,1.34.27,2.04.27.26,0,.54-.03.85-.09.3-.06.59-.16.86-.3.27-.14.5-.33.68-.58.18-.24.27-.55.27-.94,0-.5-.18-.89-.53-1.15-.35-.26-.79-.48-1.3-.67-.52-.18-1.08-.35-1.7-.52-.62-.16-1.18-.4-1.7-.73-.51-.32-.95-.76-1.3-1.3-.35-.54-.53-1.29-.53-2.24,0-.85.17-1.57.51-2.18s.8-1.11,1.36-1.5c.56-.39,1.22-.69,1.95-.88.74-.19,1.5-.29,2.29-.29.97,0,1.79.06,2.45.18.67.12,1.32.25,1.97.39l-.27,3.06Z"/>
    <path d="M613.31,157.96c-.36-.16-.76-.3-1.18-.41-.42-.11-.95-.17-1.58-.17-1.27,0-2.28.45-3.01,1.36-.74.91-1.11,2.1-1.11,3.57,0,.73.09,1.4.26,2.01.17.62.43,1.15.77,1.6s.78.81,1.32,1.08,1.16.39,1.86.39c.59,0,1.17-.08,1.74-.24s1.03-.32,1.38-.48l.18,3.36c-.59.18-1.2.31-1.83.39s-1.38.12-2.23.12c-1.27,0-2.39-.21-3.36-.62-.97-.41-1.77-.98-2.41-1.71-.64-.73-1.12-1.6-1.44-2.6-.32-1.01-.48-2.11-.48-3.3s.17-2.19.5-3.17c.33-.98.82-1.83,1.45-2.56.64-.73,1.42-1.3,2.36-1.73.94-.42,2.01-.64,3.23-.64.83,0,1.55.05,2.17.14.62.09,1.21.22,1.77.38l-.36,3.21Z"/>
    <path d="M616.64,147.48h4.06v9.24h.06c.52-.77,1.21-1.37,2.04-1.82.84-.44,1.79-.67,2.86-.67.93,0,1.73.16,2.39.47.67.31,1.22.74,1.65,1.29.43.55.75,1.19.95,1.94.2.75.3,1.56.3,2.42v9.84h-4.06v-8.33c0-.48-.02-.99-.05-1.52-.03-.52-.13-1-.3-1.44s-.43-.8-.79-1.09-.85-.44-1.5-.44c-.73,0-1.32.18-1.79.53-.46.35-.83.79-1.09,1.32s-.44,1.09-.54,1.68c-.1.6-.15,1.15-.15,1.65v7.63h-4.06v-22.72Z"/>
    <path d="M649.48,170.2h-3.85v-2.12h-.06c-.63.77-1.37,1.37-2.23,1.82-.86.44-1.82.67-2.89.67-.93,0-1.73-.15-2.39-.45-.67-.3-1.22-.73-1.65-1.27-.44-.55-.75-1.19-.95-1.94-.2-.75-.3-1.56-.3-2.45v-9.84h4.06v8.33c0,.48.02.99.05,1.51.03.52.13,1,.29,1.44s.42.8.79,1.09c.36.29.87.44,1.51.44.73,0,1.32-.18,1.79-.53.46-.35.83-.79,1.09-1.32.26-.52.44-1.08.55-1.68.1-.6.15-1.15.15-1.65v-7.63h4.06v15.6Z"/>
    <path d="M653.75,147.48h4.06v22.72h-4.06v-22.72Z"/>
    <path d="M674.59,169.32c-.75.4-1.56.71-2.42.92s-1.85.32-2.94.32c-2.58,0-4.59-.7-6.01-2.1-1.42-1.4-2.14-3.4-2.14-5.98,0-1.13.15-2.2.45-3.2.3-1,.75-1.87,1.35-2.62.6-.75,1.35-1.34,2.26-1.77.91-.43,1.97-.65,3.18-.65,1.45,0,2.65.24,3.6.71.95.48,1.71,1.13,2.27,1.95.56.83.96,1.82,1.2,2.98.23,1.16.35,2.42.35,3.77h-10.78c.1,1.27.55,2.25,1.35,2.92.8.68,1.83,1.01,3.1,1.01.99,0,1.91-.16,2.76-.47.85-.31,1.66-.68,2.42-1.1v3.3ZM671.86,160.87c-.04-.48-.13-.95-.26-1.39-.13-.44-.33-.83-.59-1.17s-.6-.6-1-.8c-.4-.2-.89-.3-1.45-.3-1.15,0-2.01.35-2.59,1.04-.58.7-.91,1.57-1.01,2.62h6.91Z"/>
  </g>
  <g>
    <path d="M81.23,83.96c0,33.95-10.77,46.36-40.52,46.36S0,117.91,0,83.96s10.95-46.54,40.7-46.54,40.52,12.59,40.52,46.54ZM12.23,83.96c0,27.93,7.12,36.51,28.47,36.51s28.48-8.58,28.48-36.51-7.12-36.51-28.48-36.51-28.47,8.58-28.47,36.51Z"/>
    <path d="M118.28,82.32c.55,5.11.73,10.04.73,14.78v31.03h-11.5V.36h11.86v58.04c0,5.66-.37,10.22-.91,15.15h12.96l30.48-33.77h13.69l-29.57,33.04c-1.46,1.82-4.02,4.2-5.48,5.11v.36c1.46,1.1,4.02,4.02,5.48,6.21l32.49,43.62h-13.51l-33.59-45.81h-13.14Z"/>
    <path d="M244.6,127.77c-5.48,1.1-14.6,1.83-18.44,1.83-14.6,0-21.9-7.85-21.9-22.09v-58.59h-16.06v-8.21l16.06-.91V12.96h11.5v26.83h29.94v9.13h-29.94v57.31c0,8.94,4.2,12.78,12.96,12.78h14.42l1.46,8.76Z"/>
    <path d="M342.43,83.96c0,33.95-10.77,46.36-40.52,46.36s-40.7-12.41-40.7-46.36,10.95-46.54,40.7-46.54,40.52,12.59,40.52,46.54ZM273.43,83.96c0,27.93,7.12,36.51,28.47,36.51s28.48-8.58,28.48-36.51-7.12-36.51-28.48-36.51-28.47,8.58-28.47,36.51Z"/>
    <path class="cls-1" d="M369.27,2.19c13.69-1.46,23-1.64,43.26-1.64,30.3,0,40.52,8.58,40.52,39.43s-10.22,39.43-38.7,39.43c-10.77,0-21.17-.73-29.02-1.64v50.38h-16.06V2.19ZM412.34,65.53c18.25-.18,24.46-5.29,24.46-25.55s-6.21-25.55-24.46-25.55c-10.59,0-19.9,0-27.02.18v50.93h27.02Z"/>
    <path class="cls-1" d="M567.68,79.95c0,36.51-12.05,50.56-45.08,50.56s-46.54-14.06-46.54-50.56V2.19h16.06v77.76c0,27.02,7.67,36.14,29.75,36.14s29.75-9.13,29.75-36.14V2.19h16.06v77.76Z"/>
    <path class="cls-1" d="M617.51,68.27c-18.25-4.56-24.82-15.88-24.82-35.05,0-29.39,12.78-33.22,40.89-33.22,11.86.18,24.82.91,37.42,3.65l-1.09,11.68c-10.59-.55-23.91-.91-35.59-.91-18.25,0-25.37.55-25.37,19.17,0,13.87,4.75,17.89,15.88,20.63l25.55,6.39c19.35,4.75,25.37,15.88,25.37,35.41,0,29.02-12.78,34.32-42.16,34.32-8.21,0-21.9-.37-39.06-3.47l1.09-11.86c21.36.73,28.11,1.09,38.51.91,19.35,0,25.37-2.92,25.37-20.26,0-14.6-4.93-18.07-15.88-20.81l-26.1-6.57Z"/>
  </g>
</svg>